<?xml version="1.0" encoding="utf-8"?>
<!-- Generator: Adobe Illustrator 16.0.4, SVG Export Plug-In . SVG Version: 6.00 Build 0)  -->
<!DOCTYPE svg PUBLIC "-//W3C//DTD SVG 1.1//EN" "http://www.w3.org/Graphics/SVG/1.1/DTD/svg11.dtd">
<svg version="1.1" id="Layer_1" xmlns="http://www.w3.org/2000/svg" xmlns:xlink="http://www.w3.org/1999/xlink" x="0px" y="0px"
	 width="700px" height="150px" viewBox="0 0 700 150" enable-background="new 0 0 700 150" xml:space="preserve">
<g>
	<path fill="#FFFFFF" d="M268.208,111.463l-8.392-14.98l-6.719,8.686c0,0-13.821-24.795-18.889-39.035h26.444l-3.777-12.592
		c-19.486-0.382-46.592,0-46.592,0l12.591,26.443c-17.345,12.621-23.671,46.295,3.247,57.121
		c11.788,4.741,25.752-5.496,25.752-5.496l2.361,4.873l16.492,0.165l-8.257-17.716L268.208,111.463z M230.43,96.354l11.834,22.065
		C225.743,132.504,217.162,103.422,230.43,96.354z"/>
	<path fill="#FFFFFF" d="M516.637,109.764c-0.885-0.777-2.004-1.373-3.365-1.79c-1.355-0.418-2.969-0.626-4.84-0.626h-8.07v29.063
		h6.162v-10.339h1.412c2.119,0,3.9-0.262,5.336-0.794c1.438-0.528,2.6-1.241,3.479-2.128c0.883-0.887,1.516-1.916,1.9-3.081
		s0.578-2.386,0.578-3.657c0-1.416-0.211-2.685-0.637-3.806C518.164,111.485,517.514,110.539,516.637,109.764z M511.66,119.99
		c-0.879,0.691-2.186,1.033-3.924,1.033h-1.213v-8.627h1.57c1.682,0,2.92,0.344,3.709,1.033c0.789,0.688,1.18,1.758,1.18,3.2
		C512.982,118.182,512.543,119.302,511.66,119.99z"/>
	<path fill="#FFFFFF" d="M557.834,116.741c-0.895-0.974-1.955-1.714-3.188-2.218c-1.234-0.502-2.586-0.756-4.057-0.756
		c-1.59,0-3.016,0.254-4.273,0.756c-1.262,0.504-2.33,1.244-3.213,2.218c-0.883,0.976-1.559,2.175-2.027,3.606
		s-0.711,3.069-0.711,4.911c0,1.856,0.256,3.498,0.756,4.929c0.508,1.433,1.207,2.642,2.1,3.619c0.896,0.981,1.963,1.73,3.195,2.237
		c1.23,0.51,2.584,0.765,4.051,0.765c1.58,0,3.002-0.255,4.268-0.765c1.268-0.507,2.336-1.256,3.221-2.237
		c0.881-0.978,1.559-2.187,2.027-3.619c0.469-1.431,0.707-3.072,0.707-4.929c0-1.842-0.256-3.479-0.756-4.911
		C559.43,118.916,558.729,117.717,557.834,116.741z M553.572,130.248c-0.625,1.129-1.631,1.689-3.025,1.689
		c-1.402,0-2.418-0.557-3.037-1.678c-0.625-1.122-0.936-2.787-0.936-5.001c0-2.212,0.307-3.866,0.922-4.959
		c0.617-1.094,1.623-1.642,3.016-1.642c1.414,0,2.436,0.548,3.061,1.642c0.621,1.093,0.934,2.747,0.934,4.959
		C554.506,127.461,554.193,129.123,553.572,130.248z"/>
	<path fill="#FFFFFF" d="M536.475,113.818c-0.178-0.023-0.365-0.035-0.555-0.039c-0.193-0.008-0.367-0.012-0.525-0.012
		c-0.744,0-1.406,0.091-1.98,0.27c-0.576,0.18-1.094,0.43-1.551,0.756c-0.457,0.322-0.873,0.72-1.244,1.181
		c-0.371,0.466-0.717,0.983-1.033,1.552h-0.301l-0.895-3.34h-4.59v22.226h6.066V125.1c0-1.046,0.127-1.934,0.385-2.652
		c0.26-0.725,0.621-1.309,1.094-1.75c0.469-0.445,1.033-0.768,1.691-0.967c0.654-0.197,1.373-0.297,2.154-0.297
		c0.135,0,0.299,0.004,0.496,0.012c0.203,0.004,0.402,0.02,0.609,0.039c0.207,0.021,0.4,0.044,0.586,0.068
		c0.184,0.027,0.332,0.055,0.436,0.08v-5.687c-0.076-0.024-0.193-0.048-0.346-0.067C536.82,113.858,536.654,113.84,536.475,113.818z
		"/>
	<path fill="#FFFFFF" d="M600.705,113.818c-0.18-0.023-0.367-0.035-0.555-0.039c-0.193-0.008-0.367-0.012-0.527-0.012
		c-0.744,0-1.402,0.091-1.98,0.27c-0.576,0.18-1.094,0.43-1.551,0.756c-0.457,0.322-0.869,0.72-1.24,1.181
		c-0.373,0.466-0.719,0.983-1.033,1.552h-0.299l-0.898-3.34h-4.592v22.226h6.066V125.1c0-1.046,0.127-1.934,0.385-2.652
		c0.26-0.725,0.625-1.309,1.096-1.75c0.467-0.445,1.031-0.768,1.688-0.967c0.658-0.197,1.377-0.297,2.16-0.297
		c0.131,0,0.299,0.004,0.494,0.012c0.203,0.004,0.402,0.02,0.607,0.039c0.205,0.021,0.4,0.044,0.588,0.068
		c0.184,0.027,0.33,0.055,0.439,0.08v-5.687c-0.082-0.024-0.201-0.048-0.35-0.067C601.051,113.858,600.883,113.84,600.705,113.818z"
		/>
	<path fill="#FFFFFF" d="M613.811,113.728c-1.482,0-2.904,0.179-4.256,0.537c-1.352,0.357-2.584,0.851-3.697,1.472l1.969,4.015
		c0.914-0.465,1.824-0.835,2.734-1.113c0.906-0.278,1.836-0.417,2.791-0.417s1.697,0.219,2.227,0.656
		c0.529,0.437,0.797,1.113,0.797,2.027v1.67l-3.539,0.119c-3.01,0.119-5.27,0.739-6.779,1.861c-1.51,1.116-2.266,2.859-2.266,5.216
		c0,1.209,0.158,2.251,0.475,3.134c0.32,0.878,0.76,1.61,1.32,2.183c0.566,0.58,1.232,1.01,2,1.297
		c0.77,0.281,1.604,0.425,2.506,0.425c0.848,0,1.594-0.063,2.238-0.198c0.641-0.132,1.221-0.339,1.738-0.617
		c0.516-0.278,0.994-0.632,1.432-1.062c0.436-0.43,0.875-0.945,1.311-1.542h0.18l1.172,3.021h4.236v-14.811
		c0-2.653-0.74-4.625-2.221-5.925C618.703,114.375,616.582,113.728,613.811,113.728z M616.375,127.941
		c0,0.716-0.102,1.349-0.297,1.901c-0.201,0.548-0.477,1.014-0.83,1.392c-0.35,0.374-0.764,0.664-1.238,0.854
		c-0.48,0.191-0.994,0.287-1.553,0.287c-0.727,0-1.32-0.195-1.768-0.585c-0.451-0.395-0.678-1.055-0.678-1.981
		c0-0.528,0.076-1.008,0.227-1.438c0.154-0.433,0.402-0.803,0.74-1.113c0.338-0.312,0.783-0.561,1.34-0.747
		c0.559-0.188,1.236-0.291,2.049-0.318l2.008-0.08V127.941z"/>
	<path fill="#FFFFFF" d="M653.305,113.768c-0.613,0-1.221,0.063-1.822,0.191c-0.605,0.127-1.176,0.321-1.723,0.583
		c-0.541,0.267-1.037,0.605-1.486,1.015c-0.453,0.413-0.836,0.902-1.152,1.471h-0.5c-0.57-1.125-1.389-1.948-2.455-2.473
		c-1.066-0.525-2.361-0.787-3.889-0.787c-0.607,0-1.209,0.063-1.805,0.191c-0.596,0.127-1.16,0.321-1.689,0.583
		c-0.533,0.267-1.018,0.605-1.465,1.015c-0.439,0.413-0.824,0.902-1.145,1.471h-0.338l-0.809-2.842h-4.639v22.226h6.068v-10.456
		c0-1.178,0.062-2.228,0.199-3.143c0.131-0.914,0.35-1.682,0.654-2.306c0.303-0.624,0.713-1.094,1.223-1.411
		c0.508-0.318,1.148-0.479,1.92-0.479c1.018,0,1.77,0.402,2.242,1.201c0.48,0.805,0.719,2.008,0.719,3.611v12.981h6.061v-11.152
		c0-2.136,0.305-3.774,0.918-4.919c0.609-1.149,1.635-1.723,3.08-1.723c1.02,0,1.768,0.402,2.248,1.201
		c0.473,0.805,0.711,2.008,0.711,3.611v12.981h6.088v-14.493c0-2.846-0.607-4.918-1.82-6.211
		C657.486,114.415,655.689,113.768,653.305,113.768z"/>
	<path fill="#FFFFFF" d="M575.873,114.086c-0.273-0.053-0.58-0.1-0.902-0.148c-0.326-0.047-0.652-0.087-0.984-0.119
		c-0.332-0.035-0.629-0.051-0.896-0.051c-1.373,0-2.594,0.174-3.658,0.517c-1.057,0.347-1.947,0.847-2.658,1.503
		c-0.723,0.655-1.262,1.455-1.633,2.395c-0.371,0.94-0.559,2.008-0.559,3.199c0,1.512,0.342,2.824,1.027,3.937
		c0.682,1.113,1.605,1.925,2.773,2.426c-0.453,0.279-0.855,0.549-1.217,0.813c-0.359,0.268-0.652,0.55-0.895,0.845
		c-0.238,0.303-0.416,0.624-0.543,0.966c-0.129,0.346-0.193,0.728-0.193,1.153c0,0.373,0.074,0.728,0.211,1.066
		c0.139,0.338,0.318,0.644,0.537,0.921c0.219,0.279,0.463,0.524,0.736,0.736c0.271,0.214,0.543,0.378,0.824,0.498
		c-0.623,0.146-1.23,0.354-1.818,0.615c-0.588,0.267-1.117,0.611-1.584,1.034c-0.461,0.425-0.834,0.934-1.111,1.529
		c-0.279,0.598-0.418,1.302-0.418,2.108c0,0.954,0.191,1.809,0.568,2.564c0.379,0.756,0.941,1.4,1.697,1.939
		c0.756,0.537,1.699,0.947,2.824,1.233s2.443,0.427,3.955,0.427c1.949,0,3.666-0.189,5.154-0.565
		c1.482-0.378,2.723-0.924,3.725-1.634c0.998-0.708,1.754-1.567,2.256-2.581c0.504-1.014,0.756-2.151,0.756-3.411
		c0-1.074-0.16-1.996-0.48-2.771c-0.312-0.776-0.77-1.416-1.357-1.921c-0.592-0.501-1.309-0.879-2.16-1.121
		c-0.846-0.247-1.805-0.37-2.883-0.37h-3.459c-0.396,0-0.779-0.016-1.148-0.048c-0.373-0.036-0.699-0.1-0.979-0.198
		c-0.277-0.1-0.5-0.234-0.674-0.397c-0.172-0.167-0.262-0.391-0.262-0.669c0-0.346,0.08-0.64,0.232-0.882
		c0.15-0.246,0.361-0.481,0.625-0.708c0.174,0.041,0.436,0.08,0.795,0.111c0.359,0.032,0.689,0.048,0.992,0.048
		c1.408,0,2.641-0.184,3.699-0.546c1.061-0.365,1.943-0.879,2.645-1.541c0.703-0.665,1.234-1.46,1.594-2.395
		c0.352-0.934,0.533-1.964,0.533-3.093c0-0.557-0.053-1.074-0.16-1.56c-0.104-0.484-0.289-0.949-0.553-1.402l3.236-1.014v-3.301
		h-7.553C576.371,114.186,576.152,114.141,575.873,114.086z M570.525,136.94c0.414-0.089,0.795-0.132,1.158-0.132h2.803
		c1.363,0,2.369,0.139,3.018,0.417c0.652,0.279,0.979,0.836,0.979,1.67c0,0.983-0.525,1.762-1.574,2.346
		c-1.047,0.585-2.6,0.875-4.672,0.875c-0.756,0-1.389-0.067-1.904-0.207c-0.52-0.138-0.934-0.329-1.258-0.568
		c-0.318-0.237-0.545-0.513-0.684-0.826c-0.139-0.312-0.209-0.629-0.209-0.963c0-0.528,0.119-0.97,0.348-1.319
		c0.23-0.355,0.521-0.638,0.869-0.848C569.74,137.174,570.119,137.022,570.525,136.94z M575.162,124.264
		c-0.426,0.664-1.117,0.995-2.072,0.995c-0.914,0-1.598-0.331-2.047-0.995c-0.449-0.66-0.676-1.594-0.676-2.803
		c0-2.596,0.91-3.896,2.723-3.896c0.971,0,1.662,0.354,2.08,1.053c0.418,0.705,0.625,1.651,0.625,2.844
		C575.795,122.67,575.582,123.604,575.162,124.264z"/>
	<path fill="#FFFFFF" d="M663.488,69.395c0.729,0,1.502,0.121,2.309,0.367c0.807,0.244,1.65,0.561,2.523,0.943l1.746-4.611
		c-0.99-0.504-2.053-0.894-3.176-1.174c-1.125-0.277-2.264-0.417-3.402-0.417c-1.564,0-2.984,0.193-4.264,0.577
		c-1.277,0.386-2.369,1.028-3.281,1.928c-0.906,0.901-1.609,2.099-2.107,3.588c-0.496,1.49-0.744,3.344-0.744,5.556
		c0,2.003,0.24,3.722,0.725,5.161c0.484,1.437,1.18,2.616,2.088,3.537c0.906,0.922,2.002,1.601,3.281,2.038
		c1.277,0.438,2.713,0.655,4.303,0.655c0.582,0,1.131-0.027,1.641-0.089c0.508-0.06,1.002-0.149,1.471-0.27
		c0.469-0.118,0.938-0.27,1.402-0.456c0.465-0.185,0.939-0.397,1.432-0.637v-5.05c-0.98,0.465-1.943,0.845-2.883,1.145
		c-0.943,0.297-1.988,0.447-3.141,0.447c-1.418,0-2.461-0.529-3.121-1.592c-0.662-1.06-0.992-2.703-0.992-4.93
		c0-2.238,0.33-3.919,0.992-5.04C660.949,69.953,662.02,69.395,663.488,69.395z"/>
	<path fill="#FFFFFF" d="M568.076,59.177c0,0.555,0.088,1.026,0.26,1.41c0.176,0.386,0.408,0.692,0.707,0.925
		c0.297,0.232,0.648,0.397,1.053,0.497c0.406,0.1,0.832,0.15,1.281,0.15c0.453,0,0.873-0.05,1.273-0.15
		c0.4-0.099,0.744-0.264,1.045-0.497c0.297-0.233,0.537-0.539,0.715-0.925c0.18-0.384,0.268-0.854,0.268-1.41
		c0-0.57-0.088-1.045-0.268-1.423c-0.178-0.378-0.418-0.683-0.715-0.916c-0.301-0.232-0.645-0.393-1.045-0.487
		c-0.4-0.092-0.82-0.136-1.273-0.136c-0.449,0-0.875,0.044-1.281,0.136c-0.404,0.094-0.756,0.254-1.053,0.487
		c-0.299,0.233-0.531,0.538-0.707,0.916C568.164,58.132,568.076,58.607,568.076,59.177z"/>
	<rect x="568.336" y="64.92" fill="#FFFFFF" width="6.066" height="22.227"/>
	<path fill="#FFFFFF" d="M621.232,67.127c-0.832-0.861-1.836-1.515-3.025-1.958c-1.186-0.443-2.512-0.666-3.982-0.666
		c-1.512,0-2.889,0.245-4.129,0.735c-1.236,0.492-2.299,1.223-3.178,2.198c-0.883,0.974-1.566,2.191-2.059,3.647
		c-0.488,1.458-0.736,3.162-0.736,5.109c0,1.923,0.266,3.597,0.807,5.021c0.537,1.425,1.289,2.604,2.256,3.539
		c0.971,0.934,2.119,1.633,3.459,2.096c1.34,0.464,2.801,0.696,4.395,0.696c0.816,0,1.572-0.027,2.266-0.089
		c0.691-0.06,1.33-0.154,1.928-0.287c0.596-0.133,1.166-0.296,1.699-0.488c0.539-0.191,1.072-0.428,1.602-0.705v-4.692
		c-0.584,0.292-1.152,0.548-1.709,0.765c-0.559,0.219-1.121,0.402-1.691,0.549c-0.566,0.145-1.154,0.254-1.762,0.326
		c-0.6,0.074-1.24,0.109-1.916,0.109c-0.807,0-1.525-0.125-2.158-0.377c-0.627-0.252-1.166-0.612-1.611-1.082
		c-0.441-0.472-0.785-1.049-1.033-1.732c-0.242-0.682-0.379-1.446-0.406-2.296h13.559v-2.942c0-1.615-0.223-3.051-0.668-4.301
		C622.695,69.046,622.059,67.988,621.232,67.127z M610.365,73.511c0.109-1.62,0.514-2.806,1.223-3.559
		c0.711-0.756,1.602-1.135,2.676-1.135c0.635,0,1.191,0.121,1.668,0.356c0.479,0.24,0.877,0.567,1.195,0.985
		c0.316,0.418,0.555,0.913,0.713,1.481c0.16,0.57,0.248,1.195,0.262,1.87H610.365z"/>
	<path fill="#FFFFFF" d="M563.656,80.547c0-0.98-0.148-1.814-0.438-2.506c-0.295-0.688-0.713-1.291-1.252-1.807
		c-0.547-0.517-1.193-0.979-1.949-1.383s-1.602-0.812-2.545-1.223c-0.809-0.37-1.463-0.687-1.967-0.945
		c-0.506-0.259-0.895-0.497-1.174-0.715c-0.279-0.22-0.465-0.432-0.557-0.637c-0.096-0.207-0.139-0.439-0.139-0.704
		c0-0.505,0.182-0.902,0.545-1.194c0.363-0.29,0.957-0.438,1.781-0.438c0.912,0,1.828,0.153,2.742,0.457
		c0.914,0.305,1.877,0.695,2.883,1.175l1.83-4.296c-1.262-0.609-2.486-1.068-3.68-1.372s-2.453-0.458-3.775-0.458
		c-1.26,0-2.402,0.128-3.43,0.388c-1.027,0.258-1.906,0.647-2.633,1.165c-0.732,0.515-1.295,1.161-1.691,1.936
		c-0.396,0.778-0.598,1.68-0.598,2.713c0,0.943,0.113,1.754,0.34,2.436c0.221,0.683,0.562,1.289,1.025,1.821
		c0.453,0.528,1.039,1.011,1.746,1.441c0.709,0.43,1.549,0.863,2.516,1.3c0.994,0.452,1.785,0.834,2.373,1.143
		c0.592,0.312,1.039,0.589,1.344,0.836c0.307,0.244,0.502,0.478,0.586,0.696c0.086,0.218,0.131,0.467,0.131,0.745
		c0,0.28-0.055,0.541-0.17,0.787c-0.113,0.242-0.291,0.455-0.539,0.634c-0.24,0.179-0.559,0.319-0.941,0.418
		c-0.385,0.1-0.846,0.149-1.393,0.149c-0.49,0-1.023-0.047-1.598-0.139c-0.582-0.093-1.174-0.223-1.781-0.387
		c-0.609-0.166-1.225-0.363-1.84-0.586c-0.613-0.227-1.201-0.479-1.76-0.758v5.01c0.531,0.24,1.055,0.438,1.572,0.596
		c0.518,0.162,1.055,0.293,1.609,0.398c0.557,0.107,1.145,0.184,1.77,0.229c0.625,0.047,1.301,0.069,2.027,0.069
		c1.381,0,2.625-0.147,3.738-0.437c1.113-0.292,2.059-0.73,2.844-1.312c0.779-0.585,1.383-1.312,1.809-2.185
		C563.441,82.732,563.656,81.713,563.656,80.547z"/>
	<path fill="#FFFFFF" d="M521.096,85.158c-0.371-0.596-0.791-1.271-1.26-2.027c-0.475-0.756-0.959-1.53-1.465-2.324
		c-1.164-1.856-2.484-3.964-3.955-6.323c0.637-0.318,1.24-0.712,1.822-1.183c0.574-0.472,1.084-1.02,1.525-1.648
		c0.447-0.633,0.803-1.35,1.066-2.159c0.266-0.808,0.398-1.709,0.398-2.704c0-2.928-0.889-5.112-2.666-6.551
		c-1.777-1.437-4.523-2.155-8.248-2.155h-7.953v29.062h6.162V75.994h2.686l6.301,11.152h6.84l-0.34-0.557
		C521.771,86.234,521.467,85.755,521.096,85.158z M511.871,69.96c-0.744,0.684-1.969,1.024-3.676,1.024h-1.672v-7.854h1.57
		c1.672,0,2.902,0.293,3.697,0.875c0.797,0.582,1.191,1.564,1.191,2.941C512.982,68.274,512.611,69.277,511.871,69.96z"/>
	<path fill="#FFFFFF" d="M590.812,86.59c0.473-0.293,0.887-0.641,1.242-1.044c0.359-0.403,0.678-0.83,0.957-1.281h0.258l1.174,2.882
		h4.631V56.215h-6.062v7.117c0,0.435,0.023,0.909,0.07,1.42c0.045,0.51,0.102,0.992,0.168,1.441c0.066,0.53,0.139,1.054,0.217,1.57
		h-0.197c-0.291-0.462-0.625-0.891-1.008-1.28c-0.371-0.392-0.803-0.738-1.277-1.036c-0.479-0.298-1.016-0.53-1.613-0.695
		c-0.596-0.166-1.25-0.249-1.967-0.249c-1.166,0-2.234,0.245-3.201,0.735c-0.967,0.492-1.801,1.223-2.492,2.198
		c-0.695,0.974-1.236,2.18-1.609,3.619c-0.383,1.438-0.57,3.11-0.57,5.019c0,1.882,0.188,3.539,0.57,4.97
		c0.373,1.433,0.902,2.629,1.578,3.59c0.674,0.962,1.48,1.688,2.426,2.176c0.941,0.492,1.98,0.735,3.121,0.735
		c0.742,0,1.406-0.085,1.996-0.259C589.814,87.115,590.342,86.883,590.812,86.59z M586.598,81.073
		c-0.6-1.093-0.904-2.733-0.904-4.921c0-2.187,0.299-3.853,0.896-5c0.596-1.146,1.531-1.719,2.803-1.719
		c0.781,0,1.432,0.145,1.947,0.438c0.518,0.291,0.928,0.718,1.234,1.28c0.301,0.563,0.525,1.266,0.654,2.098
		c0.131,0.836,0.201,1.791,0.201,2.863v0.656c-0.014,0.994-0.098,1.863-0.252,2.605c-0.152,0.74-0.387,1.359-0.691,1.859
		c-0.314,0.494-0.725,0.866-1.225,1.111c-0.506,0.246-1.115,0.367-1.83,0.367C588.148,82.713,587.201,82.169,586.598,81.073z"/>
	<path fill="#FFFFFF" d="M542.281,85.975v-4.692c-0.586,0.292-1.156,0.548-1.711,0.765c-0.557,0.219-1.121,0.402-1.689,0.549
		c-0.568,0.145-1.156,0.254-1.762,0.326c-0.602,0.074-1.24,0.109-1.916,0.109c-0.807,0-1.531-0.125-2.158-0.377
		c-0.629-0.252-1.166-0.612-1.611-1.082c-0.443-0.472-0.787-1.049-1.031-1.732c-0.244-0.682-0.385-1.446-0.408-2.296h13.559v-2.942
		c0-1.615-0.223-3.051-0.668-4.301c-0.439-1.255-1.076-2.312-1.904-3.173c-0.832-0.861-1.838-1.515-3.025-1.958
		c-1.186-0.443-2.514-0.666-3.984-0.666c-1.51,0-2.887,0.245-4.127,0.735c-1.236,0.492-2.299,1.223-3.178,2.198
		c-0.883,0.974-1.57,2.191-2.061,3.647c-0.486,1.458-0.734,3.162-0.734,5.109c0,1.923,0.266,3.597,0.805,5.021
		c0.539,1.425,1.291,2.604,2.258,3.539c0.965,0.934,2.119,1.633,3.459,2.096c1.34,0.464,2.803,0.696,4.393,0.696
		c0.818,0,1.578-0.027,2.268-0.089c0.686-0.06,1.33-0.154,1.93-0.287c0.596-0.133,1.162-0.296,1.695-0.488
		C541.215,86.488,541.752,86.252,542.281,85.975z M531.338,69.952c0.709-0.756,1.598-1.135,2.674-1.135
		c0.635,0,1.191,0.121,1.666,0.356c0.48,0.24,0.877,0.567,1.195,0.985c0.316,0.418,0.557,0.913,0.717,1.481
		c0.156,0.57,0.244,1.195,0.258,1.87h-7.734C530.221,71.891,530.627,70.705,531.338,69.952z"/>
	<path fill="#FFFFFF" d="M687.816,64.92l-3.504,12.506c-0.092,0.303-0.18,0.646-0.266,1.023c-0.088,0.377-0.162,0.76-0.229,1.144
		c-0.066,0.385-0.123,0.761-0.17,1.135c-0.049,0.37-0.082,0.708-0.111,1.013h-0.115c-0.027-0.623-0.092-1.324-0.191-2.107
		c-0.1-0.785-0.254-1.518-0.465-2.207l-3.578-12.506h-6.639l8.387,22.428l-0.377,1.111c-0.174,0.542-0.373,1.033-0.607,1.471
		c-0.232,0.438-0.508,0.813-0.836,1.124c-0.326,0.312-0.711,0.555-1.166,0.726c-0.447,0.172-0.988,0.258-1.627,0.258
		c-0.463,0-0.908-0.026-1.33-0.079c-0.426-0.054-0.777-0.112-1.053-0.179v4.812c0.354,0.079,0.787,0.152,1.287,0.227
		c0.508,0.074,1.104,0.111,1.789,0.111c2.137,0,3.914-0.57,5.33-1.711c1.418-1.141,2.541-2.883,3.361-5.229l8.785-25.07H687.816z"/>
	<path fill="#FFFFFF" d="M634.941,76.689c0-1.179,0.064-2.227,0.199-3.141c0.131-0.915,0.354-1.684,0.666-2.307
		c0.309-0.624,0.73-1.094,1.26-1.412c0.531-0.317,1.191-0.475,1.992-0.475c1.057,0,1.828,0.4,2.312,1.201
		c0.486,0.801,0.727,2.004,0.727,3.608v12.981h6.064V72.654c0-1.43-0.176-2.66-0.518-3.688c-0.344-1.025-0.834-1.87-1.471-2.534
		c-0.637-0.662-1.398-1.149-2.285-1.461c-0.891-0.312-1.877-0.468-2.963-0.468c-0.639,0-1.26,0.063-1.867,0.19
		c-0.613,0.125-1.189,0.321-1.734,0.585c-0.541,0.267-1.043,0.604-1.5,1.014c-0.457,0.412-0.844,0.903-1.16,1.471h-0.338
		l-0.82-2.843h-4.627v22.227h6.062V76.689z"/>
	<path fill="#FFFFFF" d="M546.145,30.923c0,1.432,0.18,2.623,0.529,3.569c0.354,0.95,0.83,1.706,1.443,2.267
		c0.607,0.563,1.328,0.958,2.166,1.183c0.838,0.226,1.734,0.338,2.705,0.338c0.994,0,1.91-0.096,2.75-0.287
		c0.844-0.194,1.547-0.433,2.117-0.728v-4.513c-0.553,0.198-1.104,0.366-1.639,0.5c-0.537,0.131-1.1,0.196-1.699,0.196
		c-0.691,0-1.248-0.205-1.672-0.614c-0.422-0.412-0.633-1.048-0.633-1.911V20.208h5.406v-4.552h-5.406v-4.729h-3.877l-1.752,4.689
		l-3.336,2.03v2.562h2.896V30.923z"/>
	<path fill="#FFFFFF" d="M574.729,25.697c0.459,0.528,1.041,1.01,1.75,1.441c0.707,0.43,1.547,0.863,2.518,1.301
		c0.988,0.451,1.785,0.833,2.373,1.145c0.592,0.31,1.039,0.588,1.34,0.833c0.307,0.247,0.5,0.478,0.59,0.698
		c0.086,0.217,0.131,0.465,0.131,0.743c0,0.28-0.062,0.541-0.172,0.788c-0.111,0.243-0.289,0.454-0.537,0.634
		c-0.244,0.178-0.559,0.32-0.945,0.417c-0.383,0.099-0.848,0.151-1.389,0.151c-0.492,0-1.025-0.048-1.604-0.142
		c-0.576-0.091-1.168-0.22-1.777-0.385c-0.611-0.167-1.223-0.363-1.842-0.587c-0.613-0.227-1.201-0.479-1.754-0.755v5.01
		c0.527,0.239,1.053,0.436,1.566,0.596c0.516,0.159,1.057,0.291,1.609,0.398c0.559,0.105,1.148,0.181,1.773,0.226
		c0.619,0.048,1.295,0.07,2.027,0.07c1.375,0,2.625-0.146,3.736-0.438c1.115-0.292,2.061-0.729,2.844-1.312
		c0.779-0.58,1.383-1.312,1.809-2.185c0.422-0.876,0.633-1.896,0.633-3.062c0-0.981-0.143-1.817-0.438-2.507
		c-0.291-0.688-0.707-1.29-1.252-1.807c-0.541-0.517-1.193-0.978-1.949-1.383c-0.752-0.403-1.602-0.812-2.543-1.222
		c-0.807-0.371-1.465-0.687-1.971-0.942c-0.5-0.259-0.889-0.499-1.172-0.718c-0.273-0.216-0.461-0.431-0.553-0.635
		c-0.096-0.204-0.143-0.439-0.143-0.705c0-0.504,0.182-0.903,0.549-1.192c0.365-0.292,0.959-0.44,1.781-0.44
		c0.91,0,1.824,0.154,2.742,0.459c0.916,0.303,1.875,0.694,2.883,1.172l1.83-4.296c-1.26-0.607-2.488-1.066-3.68-1.369
		c-1.191-0.306-2.451-0.458-3.775-0.458c-1.26,0-2.406,0.129-3.432,0.387s-1.904,0.648-2.635,1.165
		c-0.729,0.518-1.287,1.161-1.689,1.939c-0.395,0.775-0.598,1.678-0.598,2.713c0,0.94,0.113,1.751,0.338,2.434
		C573.93,24.56,574.271,25.165,574.729,25.697z"/>
	<path fill="#FFFFFF" d="M640.406,27.425c0-1.179,0.062-2.226,0.195-3.142c0.129-0.915,0.354-1.683,0.668-2.304
		c0.309-0.623,0.73-1.095,1.264-1.413c0.527-0.318,1.188-0.476,1.984-0.476c1.059,0,1.832,0.4,2.318,1.203
		c0.479,0.801,0.723,2.001,0.723,3.606v12.983h6.062V23.392c0-1.432-0.17-2.663-0.516-3.691c-0.348-1.025-0.836-1.87-1.473-2.535
		c-0.635-0.661-1.4-1.149-2.287-1.46c-0.887-0.311-1.871-0.467-2.961-0.467c-0.633,0-1.262,0.063-1.867,0.19
		c-0.609,0.125-1.186,0.32-1.727,0.586c-0.549,0.264-1.047,0.603-1.504,1.015c-0.457,0.409-0.848,0.9-1.166,1.47h-0.336
		l-0.811-2.844h-4.637v22.227h6.068V27.425z"/>
	<rect x="562.146" y="15.656" fill="#FFFFFF" width="6.064" height="22.227"/>
	<path fill="#FFFFFF" d="M562.855,12.245c0.299,0.233,0.65,0.4,1.055,0.499c0.406,0.099,0.83,0.15,1.285,0.15
		c0.449,0,0.869-0.052,1.27-0.15c0.398-0.098,0.746-0.266,1.045-0.499c0.297-0.232,0.535-0.538,0.715-0.924
		c0.178-0.383,0.27-0.854,0.27-1.408c0-0.571-0.092-1.047-0.27-1.422c-0.18-0.38-0.418-0.684-0.715-0.917
		c-0.299-0.232-0.646-0.394-1.045-0.488c-0.4-0.091-0.82-0.137-1.27-0.137c-0.455,0-0.879,0.045-1.285,0.137
		c-0.404,0.094-0.756,0.255-1.055,0.488c-0.297,0.232-0.531,0.536-0.709,0.917c-0.17,0.375-0.258,0.851-0.258,1.422
		c0,0.554,0.088,1.025,0.258,1.408C562.324,11.708,562.559,12.013,562.855,12.245z"/>
	<path fill="#FFFFFF" d="M532.885,26.569c0-1.045,0.131-1.93,0.385-2.651c0.26-0.725,0.625-1.309,1.094-1.752
		c0.475-0.443,1.035-0.765,1.689-0.962c0.658-0.201,1.377-0.301,2.158-0.301c0.133,0,0.299,0.004,0.498,0.01
		c0.199,0.006,0.398,0.022,0.604,0.042c0.207,0.019,0.402,0.042,0.588,0.07c0.186,0.025,0.332,0.052,0.439,0.08v-5.686
		c-0.078-0.028-0.195-0.051-0.35-0.069c-0.152-0.021-0.316-0.042-0.496-0.062c-0.182-0.018-0.363-0.032-0.557-0.038
		c-0.191-0.008-0.367-0.011-0.527-0.011c-0.742,0-1.402,0.089-1.979,0.27c-0.576,0.179-1.094,0.429-1.551,0.754
		c-0.459,0.323-0.869,0.718-1.24,1.181c-0.371,0.465-0.715,0.983-1.033,1.554h-0.299l-0.895-3.342h-4.594v22.227h6.064V26.569z"/>
	<path fill="#FFFFFF" d="M607.098,37.265v-4.513c-0.557,0.198-1.105,0.366-1.639,0.5c-0.539,0.131-1.105,0.196-1.701,0.196
		c-0.691,0-1.244-0.205-1.668-0.614c-0.428-0.412-0.641-1.048-0.641-1.911V20.208h5.408v-4.552h-5.408v-4.729h-3.875l-1.75,4.689
		l-3.338,2.03v2.562h2.902v10.715c0,1.432,0.174,2.623,0.523,3.569c0.354,0.95,0.836,1.706,1.445,2.267
		c0.609,0.563,1.332,0.958,2.166,1.183c0.836,0.226,1.734,0.338,2.703,0.338c0.992,0,1.914-0.096,2.752-0.287
		C605.822,37.798,606.525,37.56,607.098,37.265z"/>
	<path fill="#FFFFFF" d="M628.238,8.491c-0.18-0.38-0.418-0.684-0.715-0.917c-0.299-0.232-0.646-0.394-1.041-0.488
		c-0.398-0.091-0.824-0.137-1.273-0.137c-0.453,0-0.879,0.045-1.285,0.137c-0.402,0.094-0.754,0.255-1.053,0.488
		s-0.533,0.536-0.703,0.917c-0.172,0.375-0.258,0.851-0.258,1.422c0,0.554,0.086,1.025,0.258,1.408
		c0.17,0.387,0.404,0.692,0.703,0.924c0.299,0.233,0.65,0.4,1.053,0.499c0.406,0.099,0.832,0.15,1.285,0.15
		c0.449,0,0.875-0.052,1.273-0.15c0.395-0.098,0.742-0.266,1.041-0.499c0.297-0.232,0.535-0.538,0.715-0.924
		c0.18-0.383,0.271-0.854,0.271-1.408C628.51,9.342,628.418,8.866,628.238,8.491z"/>
	<rect x="622.168" y="15.656" fill="#FFFFFF" width="6.062" height="22.227"/>
	<path fill="#FFFFFF" d="M506.145,8.697l-9.441,29.185h6.223l2.008-6.917h10.02l1.988,6.917h6.223l-9.482-29.185H506.145z
		 M506.424,25.797l1.85-6.364c0.041-0.146,0.104-0.37,0.188-0.676c0.086-0.304,0.182-0.656,0.289-1.054
		c0.107-0.395,0.219-0.82,0.338-1.272c0.121-0.449,0.234-0.897,0.35-1.339c0.111-0.446,0.211-0.868,0.295-1.263
		c0.088-0.399,0.158-0.743,0.211-1.034c0.068,0.463,0.18,1.026,0.336,1.69c0.16,0.66,0.332,1.32,0.51,1.979
		c0.18,0.656,0.348,1.254,0.506,1.797c0.16,0.543,0.279,0.934,0.359,1.173l1.867,6.364H506.424z"/>
	<polygon fill="#FFFFFF" points="420.977,27.34 450.83,27.34 420.977,118.32 421.102,118.361 420.977,118.361 420.977,136.647 
		470.182,136.647 470.182,118.361 440.207,118.361 470.074,27.34 470.182,27.34 470.182,9.054 420.977,9.054 	"/>
	<polygon fill="#FFFFFF" points="25.528,9.342 7.242,9.342 7.242,9.47 7.242,27.755 7.242,63.752 7.242,82.037 7.242,118.361 
		7.242,136.447 7.242,136.647 56.447,136.647 56.447,118.361 25.528,118.361 25.528,82.037 49.176,82.037 49.176,63.752 
		25.528,63.752 25.528,27.755 56.447,27.755 56.447,9.47 25.528,9.47 	"/>
	<path fill="#FFFFFF" d="M167.072,112.81l-0.082,0.012c0,0.022-0.218,2.468-1.603,3.854c-1.004,1.007-2.77,1.516-5.247,1.516
		c-0.098,0-0.184-0.007-0.28-0.007s-0.182,0.007-0.28,0.007c-2.477,0-4.243-0.509-5.247-1.516c-1.385-1.386-1.603-3.831-1.603-3.854
		l-0.082-0.012V9.342h-18.286V112.81c0,1.046,0.201,10.063,6.975,16.847c3.146,3.147,8.863,6.901,18.242,6.901
		c0.096,0,0.184-0.009,0.28-0.011c0.096,0.002,0.184,0.011,0.28,0.011c9.379,0,15.097-3.754,18.242-6.901
		c6.774-6.783,6.975-15.801,6.975-16.847V9.342h-18.286V112.81z"/>
	<path fill="#FFFFFF" d="M337.369,9.054h-22.912c-1.044,0-10.062,0.201-16.846,6.976c-3.147,3.146-6.902,8.864-6.902,18.241
		c0,0.096,0.01,0.184,0.011,0.28h-0.01V70.57h-0.001v42.239c0,1.046,0.2,10.063,6.977,16.847c3.145,3.147,8.863,6.901,18.241,6.901
		c0.095,0,0.184-0.009,0.278-0.011v0.101h8.255h18.286v-18.464V62.466h-5.377h-12.909h-7.73v18.286h7.73v37.432h-8.255
		c-0.095,0-0.181,0.007-0.278,0.007c-2.476,0-4.243-0.509-5.245-1.516c-1.386-1.386-1.605-3.831-1.605-3.854l-0.081-0.012v-2.726
		h0.001V34.551h0.088c0-0.096-0.008-0.182-0.008-0.28c0-2.476,0.51-4.243,1.516-5.245c1.387-1.385,3.832-1.605,3.854-1.605
		l0.012-0.081h0.461v0.216h27.828V9.271h-5.377V9.054z"/>
	<path fill="#FFFFFF" d="M380.518,9.47h-6.893c0,0-14.268,84.787-21.404,127.178h17.627l2.518-16.368h8.152h8.15l2.518,16.368
		h17.627C401.676,94.257,387.408,9.47,387.408,9.47H380.518z M380.518,101.391h-4.904l4.904-35.703l4.902,35.703H380.518z"/>
	<path fill="#FFFFFF" d="M96.083,8.705h-6.891c0,0-14.269,84.787-21.405,127.177h17.627l2.517-16.368h8.152h8.152l2.517,16.368
		h17.627C117.243,93.491,102.975,8.705,102.975,8.705H96.083z M96.083,100.625h-4.902l4.902-35.703l4.903,35.703H96.083z"/>
</g>
</svg>
