<?xml version="1.0" encoding="utf-8"?>
<!-- Generator: Adobe Illustrator 16.0.4, SVG Export Plug-In . SVG Version: 6.00 Build 0)  -->
<!DOCTYPE svg PUBLIC "-//W3C//DTD SVG 1.1//EN" "http://www.w3.org/Graphics/SVG/1.1/DTD/svg11.dtd">
<svg version="1.1" id="Ebene_1" xmlns="http://www.w3.org/2000/svg" xmlns:xlink="http://www.w3.org/1999/xlink" x="0px" y="0px"
	 width="694px" height="233px" viewBox="0 0 694 233" enable-background="new 0 0 694 233" xml:space="preserve">
<rect fill="#000032" width="694" height="233"/>
<path fill="#FFFFFF" d="M289.188,152.4l-6.854-12.234l-5.487,7.093c0,0-11.287-20.25-15.426-31.879h21.596l-3.085-10.283
	c-15.914-0.312-38.049,0-38.049,0l10.283,21.595C238,137,232.833,164.5,254.816,173.341c9.627,3.872,21.03-4.488,21.03-4.488
	l1.929,3.98l13.468,0.134L284.5,158.5L289.188,152.4z M258.335,140.062L268,158.081C254.508,169.583,247.5,145.833,258.335,140.062z
	"/>
<polygon fill="#FFFFFF" points="413.947,83.7 438.328,83.7 413.947,158 414.049,158.034 413.947,158.034 413.947,172.967 
	454.131,172.967 454.131,158.034 429.652,158.034 454.044,83.7 454.131,83.7 454.131,68.767 413.947,68.767 "/>
<polygon fill="#FFFFFF" points="91,69.002 76.067,69.002 76.067,69.106 76.067,84.04 76.067,113.437 76.067,128.37 76.067,158.034 
	76.067,172.804 76.067,172.967 116.25,172.967 116.25,158.034 91,158.034 91,128.37 110.312,128.37 110.312,113.437 91,113.437 
	91,84.04 116.25,84.04 116.25,69.106 91,69.106 "/>
<path fill="#FFFFFF" d="M206.593,153.5l-0.067,0.01c0,0.018-0.178,2.015-1.309,3.146c-0.82,0.822-2.262,1.238-4.285,1.238
	c-0.08,0-0.15-0.006-0.229-0.006s-0.148,0.006-0.229,0.006c-2.023,0-3.465-0.416-4.285-1.238c-1.131-1.132-1.309-3.129-1.309-3.146
	l-0.067-0.01V69.002h-14.933V153.5c0,0.854,0.164,8.219,5.696,13.758c2.568,2.57,7.238,5.637,14.897,5.637
	c0.078,0,0.15-0.008,0.229-0.009c0.078,0.001,0.15,0.009,0.229,0.009c7.66,0,12.329-3.066,14.897-5.637
	c5.533-5.539,5.696-12.904,5.696-13.758V69.002h-14.933V153.5z"/>
<path fill="#FFFFFF" d="M345.668,68.767h-18.711c-0.854,0-8.219,0.164-13.758,5.697c-2.57,2.568-5.637,7.238-5.637,14.896
	c0,0.078,0.008,0.15,0.009,0.229h-0.008v29.416h-0.001V153.5c0,0.854,0.164,8.219,5.697,13.758c2.568,2.57,7.238,5.637,14.896,5.637
	c0.078,0,0.15-0.008,0.229-0.009v0.081h6.741h14.934v-15.078v-45.502h-4.392h-10.542h-6.313v14.933h6.313v30.569h-6.741
	c-0.078,0-0.148,0.006-0.229,0.006c-2.021,0-3.465-0.416-4.283-1.238c-1.131-1.132-1.311-3.129-1.311-3.146l-0.066-0.01v-2.226
	h0.001V89.589h0.071c0-0.078-0.006-0.148-0.006-0.229c0-2.021,0.416-3.465,1.238-4.283c1.132-1.131,3.129-1.311,3.146-1.311
	l0.01-0.066h0.376v0.176h22.727V68.944h-4.392V68.767z"/>
<path fill="#FFFFFF" d="M380.905,69.106h-5.628c0,0-11.652,69.242-17.48,103.86h14.396l2.056-13.367h6.657h6.657l2.056,13.367
	h14.396c-5.828-34.618-17.48-103.86-17.48-103.86H380.905z M380.905,144.174h-4.004l4.004-29.157l4.004,29.157H380.905z"/>
<path fill="#FFFFFF" d="M148.62,68.481h-5.628c0,0-11.652,69.242-17.48,103.86h14.396l2.056-13.367h6.657h6.657l2.056,13.367h14.396
	c-5.828-34.618-17.48-103.86-17.48-103.86H148.62z M148.62,143.549h-4.004l4.004-29.157l4.004,29.157H148.62z"/>
</svg>
