<?xml version="1.0" encoding="utf-8"?>
<!-- Generator: Adobe Illustrator 16.0.4, SVG Export Plug-In . SVG Version: 6.00 Build 0)  -->
<!DOCTYPE svg PUBLIC "-//W3C//DTD SVG 1.1//EN" "http://www.w3.org/Graphics/SVG/1.1/DTD/svg11.dtd">
<svg version="1.1" id="Ebene_1" xmlns="http://www.w3.org/2000/svg" xmlns:xlink="http://www.w3.org/1999/xlink" x="0px" y="0px"
	 width="694px" height="233px" viewBox="0 0 694 233" enable-background="new 0 0 694 233" xml:space="preserve">
<rect fill="#000032" width="694" height="233"/>
<g>
	<path fill="#FFFFFF" d="M289.188,152.4l-6.854-12.234l-5.487,7.093c0,0-11.287-20.25-15.426-31.879h21.596l-3.085-10.283
		c-15.914-0.312-38.049,0-38.049,0l10.283,21.595C238,137,232.833,164.5,254.816,173.341c9.627,3.872,21.03-4.488,21.03-4.488
		l1.929,3.98l13.468,0.134L284.5,158.5L289.188,152.4z M258.335,140.062L268,158.081C254.508,169.583,247.5,145.833,258.335,140.062
		z"/>
	<path fill="#FFFFFF" d="M492.068,151.012c-0.722-0.634-1.637-1.121-2.748-1.462c-1.106-0.341-2.425-0.511-3.952-0.511h-6.591
		v23.735h5.032v-8.443h1.154c1.73,0,3.185-0.214,4.356-0.649c1.175-0.432,2.123-1.013,2.842-1.737
		c0.721-0.725,1.237-1.565,1.552-2.517c0.314-0.951,0.472-1.948,0.472-2.987c0-1.156-0.173-2.192-0.52-3.107
		C493.317,152.418,492.785,151.646,492.068,151.012z M488.006,159.364c-0.718,0.565-1.786,0.844-3.205,0.844h-0.991v-7.046h1.282
		c1.374,0,2.386,0.282,3.03,0.844c0.644,0.562,0.964,1.435,0.964,2.613C489.086,157.887,488.727,158.802,488.006,159.364z"/>
	<path fill="#FFFFFF" d="M525.714,156.71c-0.73-0.795-1.597-1.399-2.604-1.811c-1.007-0.41-2.11-0.617-3.312-0.617
		c-1.298,0-2.463,0.208-3.489,0.617c-1.03,0.412-1.903,1.016-2.625,1.811c-0.72,0.796-1.272,1.776-1.655,2.946
		c-0.383,1.169-0.579,2.506-0.579,4.01c0,1.516,0.209,2.857,0.617,4.026c0.413,1.169,0.985,2.156,1.715,2.955
		c0.731,0.802,1.602,1.413,2.608,1.828c1.006,0.416,2.11,0.624,3.308,0.624c1.29,0,2.452-0.208,3.486-0.624
		c1.035-0.415,1.908-1.026,2.629-1.828c0.721-0.799,1.273-1.786,1.656-2.955c0.383-1.169,0.577-2.51,0.577-4.026
		c0-1.504-0.208-2.841-0.616-4.01C527.017,158.487,526.444,157.507,525.714,156.71z M522.233,167.741
		c-0.511,0.922-1.332,1.38-2.472,1.38c-1.146,0-1.974-0.455-2.479-1.37c-0.511-0.916-0.765-2.276-0.765-4.084
		c0-1.806,0.251-3.157,0.754-4.05s1.325-1.341,2.462-1.341c1.155,0,1.989,0.448,2.5,1.341c0.507,0.893,0.763,2.244,0.763,4.05
		C522.996,165.465,522.74,166.822,522.233,167.741z"/>
	<path fill="#FFFFFF" d="M508.271,154.324c-0.146-0.02-0.299-0.029-0.454-0.032c-0.156-0.007-0.3-0.01-0.429-0.01
		c-0.607,0-1.147,0.074-1.617,0.22c-0.471,0.147-0.894,0.351-1.267,0.617c-0.373,0.263-0.712,0.588-1.016,0.964
		c-0.303,0.38-0.585,0.803-0.845,1.267h-0.244l-0.73-2.728h-3.75v18.151h4.955v-9.238c0-0.854,0.104-1.578,0.314-2.166
		c0.212-0.591,0.507-1.068,0.894-1.429c0.383-0.364,0.844-0.627,1.38-0.79c0.535-0.162,1.123-0.243,1.761-0.243
		c0.109,0,0.243,0.003,0.405,0.01c0.165,0.003,0.328,0.016,0.497,0.032c0.169,0.017,0.326,0.036,0.478,0.056
		c0.151,0.022,0.272,0.045,0.356,0.065v-4.644c-0.062-0.02-0.158-0.039-0.282-0.056
		C508.553,154.356,508.417,154.341,508.271,154.324z"/>
	<path fill="#FFFFFF" d="M560.725,154.324c-0.146-0.02-0.3-0.029-0.454-0.032c-0.157-0.007-0.3-0.01-0.43-0.01
		c-0.607,0-1.146,0.074-1.617,0.22c-0.471,0.147-0.894,0.351-1.267,0.617c-0.373,0.263-0.71,0.588-1.013,0.964
		c-0.306,0.38-0.588,0.803-0.845,1.267h-0.243l-0.734-2.728h-3.749v18.151h4.954v-9.238c0-0.854,0.104-1.578,0.314-2.166
		c0.212-0.591,0.511-1.068,0.894-1.429c0.383-0.364,0.844-0.627,1.38-0.79c0.536-0.162,1.124-0.243,1.763-0.243
		c0.107,0,0.244,0.003,0.403,0.01c0.166,0.003,0.329,0.016,0.497,0.032c0.168,0.017,0.327,0.036,0.479,0.056
		c0.15,0.022,0.27,0.045,0.358,0.065v-4.644c-0.065-0.02-0.163-0.039-0.285-0.056C561.007,154.356,560.87,154.341,560.725,154.324z"
		/>
	<path fill="#FFFFFF" d="M571.427,154.25c-1.211,0-2.371,0.146-3.475,0.438c-1.104,0.292-2.11,0.695-3.02,1.202l1.606,3.279
		c0.748-0.38,1.491-0.682,2.234-0.91c0.74-0.227,1.5-0.34,2.279-0.34c0.78,0,1.386,0.179,1.818,0.536
		c0.432,0.356,0.65,0.909,0.65,1.656v1.364l-2.891,0.097c-2.458,0.098-4.303,0.604-5.536,1.52c-1.233,0.912-1.851,2.335-1.851,4.26
		c0,0.987,0.13,1.838,0.389,2.559c0.261,0.717,0.62,1.314,1.078,1.782c0.462,0.474,1.007,0.825,1.634,1.059
		c0.627,0.23,1.309,0.347,2.046,0.347c0.691,0,1.302-0.052,1.828-0.163c0.522-0.107,0.997-0.276,1.419-0.503
		c0.421-0.227,0.812-0.516,1.169-0.867c0.356-0.352,0.715-0.773,1.071-1.26h0.146l0.958,2.468h3.459v-12.095
		c0-2.167-0.604-3.777-1.812-4.838C575.424,154.779,573.69,154.25,571.427,154.25z M573.521,165.858
		c0,0.584-0.083,1.101-0.243,1.552c-0.163,0.448-0.389,0.828-0.677,1.136c-0.285,0.305-0.623,0.542-1.012,0.698
		c-0.392,0.156-0.812,0.234-1.268,0.234c-0.595,0-1.078-0.159-1.444-0.478c-0.368-0.322-0.553-0.86-0.553-1.617
		c0-0.432,0.062-0.824,0.185-1.175c0.127-0.354,0.329-0.657,0.605-0.91c0.275-0.256,0.64-0.458,1.094-0.61
		c0.455-0.153,1.01-0.237,1.672-0.26l1.641-0.065V165.858z"/>
	<path fill="#FFFFFF" d="M603.68,154.282c-0.5,0-0.997,0.052-1.487,0.156c-0.494,0.104-0.961,0.263-1.406,0.477
		c-0.442,0.218-0.847,0.494-1.214,0.828c-0.371,0.338-0.683,0.737-0.941,1.202h-0.409c-0.465-0.919-1.133-1.591-2.004-2.02
		c-0.871-0.428-1.929-0.643-3.176-0.643c-0.496,0-0.987,0.052-1.475,0.156c-0.486,0.104-0.947,0.263-1.379,0.477
		c-0.437,0.218-0.831,0.494-1.196,0.828c-0.359,0.338-0.674,0.737-0.935,1.202h-0.276l-0.661-2.322h-3.787v18.151h4.956v-8.54
		c0-0.961,0.051-1.819,0.162-2.565c0.107-0.747,0.286-1.374,0.535-1.883c0.246-0.51,0.581-0.894,0.997-1.153
		c0.415-0.26,0.938-0.39,1.568-0.39c0.831,0,1.445,0.328,1.832,0.98c0.392,0.657,0.587,1.64,0.587,2.949v10.602h4.949v-9.108
		c0-1.744,0.249-3.082,0.75-4.017c0.496-0.938,1.334-1.406,2.514-1.406c0.834,0,1.444,0.328,1.837,0.98
		c0.386,0.657,0.581,1.64,0.581,2.949v10.602h4.972v-11.836c0-2.325-0.497-4.016-1.487-5.072S605.628,154.282,603.68,154.282z"/>
	<path fill="#FFFFFF" d="M540.445,154.542c-0.224-0.042-0.474-0.081-0.736-0.121c-0.267-0.039-0.533-0.071-0.805-0.097
		c-0.271-0.029-0.514-0.042-0.731-0.042c-1.122,0-2.119,0.143-2.988,0.422c-0.863,0.283-1.591,0.691-2.171,1.228
		c-0.589,0.535-1.029,1.188-1.334,1.955c-0.303,0.769-0.455,1.64-0.455,2.614c0,1.233,0.278,2.305,0.838,3.214
		c0.558,0.909,1.312,1.572,2.266,1.98c-0.369,0.228-0.698,0.448-0.993,0.666c-0.293,0.218-0.533,0.448-0.73,0.688
		c-0.194,0.247-0.341,0.51-0.444,0.79c-0.104,0.282-0.157,0.594-0.157,0.941c0,0.305,0.06,0.595,0.173,0.871
		c0.112,0.276,0.26,0.525,0.438,0.752c0.179,0.228,0.377,0.429,0.6,0.601c0.223,0.175,0.445,0.309,0.674,0.406
		c-0.508,0.12-1.005,0.289-1.484,0.503c-0.48,0.218-0.913,0.5-1.293,0.844c-0.377,0.347-0.682,0.763-0.908,1.25
		c-0.229,0.487-0.342,1.062-0.342,1.721c0,0.779,0.156,1.478,0.465,2.095c0.309,0.617,0.769,1.143,1.386,1.583
		c0.617,0.438,1.388,0.773,2.306,1.008c0.919,0.233,1.997,0.348,3.23,0.348c1.592,0,2.994-0.154,4.209-0.462
		c1.211-0.309,2.224-0.754,3.042-1.334c0.815-0.578,1.433-1.28,1.842-2.107c0.412-0.828,0.617-1.757,0.617-2.786
		c0-0.877-0.13-1.63-0.391-2.264c-0.256-0.633-0.63-1.156-1.11-1.568c-0.483-0.41-1.068-0.718-1.763-0.916
		c-0.691-0.202-1.475-0.303-2.354-0.303h-2.825c-0.323,0-0.637-0.013-0.938-0.039c-0.306-0.03-0.572-0.082-0.799-0.163
		c-0.228-0.081-0.409-0.191-0.552-0.324c-0.14-0.137-0.212-0.319-0.212-0.546c0-0.283,0.064-0.523,0.188-0.721
		c0.123-0.201,0.296-0.393,0.51-0.578c0.143,0.033,0.356,0.065,0.65,0.091c0.294,0.026,0.563,0.039,0.811,0.039
		c1.149,0,2.156-0.15,3.021-0.445c0.866-0.299,1.587-0.718,2.159-1.26c0.575-0.542,1.009-1.192,1.302-1.955
		c0.288-0.763,0.436-1.604,0.436-2.526c0-0.455-0.043-0.877-0.131-1.273c-0.084-0.396-0.236-0.776-0.451-1.146l2.643-0.828v-2.696
		h-6.168C540.852,154.623,540.674,154.587,540.445,154.542z M536.078,173.206c0.338-0.071,0.649-0.107,0.946-0.107h2.288
		c1.114,0,1.936,0.113,2.464,0.341c0.534,0.228,0.8,0.682,0.8,1.363c0,0.803-0.429,1.439-1.286,1.916
		c-0.854,0.478-2.123,0.715-3.814,0.715c-0.617,0-1.134-0.055-1.556-0.169c-0.424-0.113-0.763-0.269-1.026-0.464
		c-0.261-0.194-0.445-0.418-0.559-0.675c-0.113-0.253-0.172-0.513-0.172-0.786c0-0.431,0.098-0.792,0.285-1.077
		c0.188-0.29,0.425-0.52,0.709-0.692C535.437,173.397,535.745,173.274,536.078,173.206z M539.864,162.854
		c-0.348,0.542-0.911,0.812-1.691,0.812c-0.747,0-1.306-0.27-1.672-0.812c-0.367-0.54-0.552-1.302-0.552-2.29
		c0-2.12,0.743-3.182,2.224-3.182c0.792,0,1.357,0.289,1.698,0.86c0.342,0.575,0.51,1.348,0.51,2.322
		C540.381,161.552,540.208,162.315,539.864,162.854z"/>
	<path fill="#FFFFFF" d="M611.998,118.044c0.594,0,1.226,0.099,1.885,0.3c0.658,0.2,1.347,0.458,2.061,0.771l1.426-3.766
		c-0.809-0.411-1.676-0.729-2.594-0.958c-0.919-0.227-1.849-0.341-2.777-0.341c-1.278,0-2.438,0.157-3.483,0.471
		c-1.042,0.315-1.935,0.839-2.68,1.575c-0.74,0.736-1.314,1.714-1.72,2.931c-0.406,1.217-0.608,2.73-0.608,4.537
		c0,1.635,0.196,3.04,0.591,4.215c0.397,1.173,0.965,2.137,1.705,2.889c0.741,0.753,1.635,1.307,2.68,1.664
		c1.044,0.357,2.217,0.536,3.516,0.536c0.475,0,0.923-0.022,1.339-0.073c0.415-0.049,0.818-0.122,1.201-0.22
		c0.383-0.097,0.766-0.221,1.146-0.373c0.38-0.151,0.768-0.324,1.169-0.52v-4.124c-0.801,0.38-1.587,0.69-2.354,0.934
		c-0.771,0.243-1.624,0.365-2.565,0.365c-1.158,0-2.01-0.432-2.55-1.299c-0.541-0.865-0.811-2.208-0.811-4.026
		c0-1.828,0.27-3.2,0.811-4.116C609.924,118.501,610.797,118.044,611.998,118.044z"/>
	<path fill="#FFFFFF" d="M534.078,109.7c0,0.453,0.071,0.838,0.212,1.151c0.144,0.315,0.334,0.565,0.577,0.755
		s0.53,0.325,0.86,0.406c0.332,0.082,0.68,0.122,1.046,0.122c0.37,0,0.714-0.041,1.04-0.122c0.326-0.081,0.608-0.216,0.854-0.406
		c0.243-0.19,0.438-0.44,0.584-0.755c0.146-0.313,0.218-0.698,0.218-1.151c0-0.466-0.071-0.854-0.218-1.162
		s-0.341-0.558-0.584-0.748c-0.245-0.19-0.527-0.321-0.854-0.397c-0.326-0.076-0.67-0.112-1.04-0.112
		c-0.366,0-0.714,0.036-1.046,0.112c-0.33,0.077-0.617,0.208-0.86,0.397s-0.434,0.439-0.577,0.748
		C534.149,108.847,534.078,109.234,534.078,109.7z"/>
	<rect x="534.29" y="114.391" fill="#FFFFFF" width="4.954" height="18.151"/>
	<path fill="#FFFFFF" d="M577.489,116.193c-0.68-0.703-1.501-1.237-2.472-1.6c-0.968-0.362-2.051-0.544-3.253-0.544
		c-1.234,0-2.358,0.2-3.371,0.601c-1.01,0.401-1.877,0.999-2.595,1.794c-0.721,0.795-1.279,1.789-1.683,2.979
		c-0.397,1.19-0.6,2.582-0.6,4.172c0,1.57,0.217,2.937,0.659,4.1c0.438,1.164,1.052,2.127,1.841,2.89
		c0.793,0.763,1.73,1.334,2.825,1.712c1.094,0.378,2.288,0.568,3.588,0.568c0.668,0,1.285-0.022,1.852-0.073
		c0.564-0.049,1.086-0.126,1.574-0.234c0.486-0.108,0.951-0.242,1.387-0.399c0.441-0.156,0.876-0.349,1.309-0.576v-3.832
		c-0.478,0.238-0.941,0.448-1.396,0.625c-0.455,0.179-0.915,0.328-1.38,0.448c-0.464,0.117-0.944,0.208-1.439,0.266
		c-0.489,0.06-1.013,0.089-1.564,0.089c-0.658,0-1.246-0.102-1.763-0.308c-0.513-0.206-0.952-0.5-1.315-0.883
		c-0.36-0.385-0.643-0.857-0.845-1.415c-0.197-0.557-0.309-1.182-0.331-1.875h11.073v-2.403c0-1.32-0.183-2.492-0.546-3.513
		C578.684,117.76,578.164,116.896,577.489,116.193z M568.614,121.406c0.088-1.323,0.419-2.291,0.997-2.906
		c0.581-0.617,1.309-0.927,2.186-0.927c0.52,0,0.974,0.099,1.363,0.292c0.391,0.195,0.715,0.463,0.975,0.804
		s0.455,0.745,0.584,1.209c0.13,0.466,0.201,0.976,0.212,1.528H568.614z"/>
	<path fill="#FFFFFF" d="M530.468,127.152c0-0.801-0.12-1.482-0.357-2.046c-0.24-0.562-0.582-1.055-1.022-1.476
		c-0.445-0.422-0.975-0.799-1.591-1.13c-0.617-0.33-1.309-0.663-2.078-0.999c-0.66-0.302-1.195-0.56-1.607-0.771
		c-0.412-0.211-0.73-0.406-0.958-0.584c-0.229-0.179-0.38-0.353-0.454-0.52c-0.079-0.169-0.114-0.359-0.114-0.575
		c0-0.412,0.149-0.737,0.444-0.976c0.299-0.237,0.782-0.357,1.456-0.357c0.745,0,1.493,0.125,2.239,0.373
		c0.747,0.249,1.532,0.568,2.354,0.959l1.494-3.508c-1.03-0.497-2.03-0.872-3.005-1.12c-0.974-0.248-2.003-0.374-3.083-0.374
		c-1.029,0-1.962,0.105-2.801,0.317c-0.84,0.211-1.558,0.529-2.151,0.951c-0.598,0.42-1.057,0.948-1.38,1.581
		c-0.325,0.635-0.488,1.373-0.488,2.216c0,0.77,0.092,1.432,0.277,1.989c0.181,0.557,0.46,1.052,0.837,1.487
		c0.37,0.432,0.849,0.825,1.426,1.177c0.58,0.351,1.266,0.705,2.055,1.062c0.812,0.369,1.458,0.681,1.938,0.933
		c0.483,0.255,0.848,0.481,1.098,0.683c0.25,0.2,0.409,0.39,0.478,0.568c0.071,0.178,0.106,0.381,0.106,0.608
		c0,0.229-0.044,0.442-0.139,0.643c-0.091,0.198-0.237,0.372-0.439,0.518c-0.196,0.146-0.457,0.26-0.769,0.341
		c-0.314,0.081-0.691,0.122-1.137,0.122c-0.4,0-0.837-0.037-1.306-0.113c-0.475-0.075-0.958-0.182-1.454-0.315
		c-0.497-0.136-1-0.297-1.504-0.479c-0.499-0.185-0.979-0.392-1.436-0.619v4.091c0.433,0.196,0.861,0.357,1.283,0.487
		c0.422,0.132,0.861,0.239,1.315,0.325c0.454,0.088,0.935,0.15,1.444,0.187c0.511,0.039,1.062,0.057,1.656,0.057
		c1.127,0,2.143-0.12,3.053-0.357c0.909-0.238,1.682-0.595,2.321-1.071c0.637-0.478,1.13-1.072,1.478-1.784
		C530.293,128.938,530.468,128.104,530.468,127.152z"/>
	<path fill="#FFFFFF" d="M495.711,130.918c-0.303-0.487-0.646-1.039-1.029-1.656c-0.387-0.617-0.782-1.25-1.195-1.898
		c-0.951-1.516-2.029-3.237-3.231-5.164c0.521-0.26,1.014-0.582,1.488-0.966c0.471-0.385,0.886-0.833,1.246-1.346
		c0.365-0.517,0.656-1.103,0.871-1.764c0.218-0.659,0.325-1.396,0.325-2.208c0-2.391-0.725-4.174-2.177-5.35
		c-1.451-1.174-3.694-1.76-6.736-1.76h-6.495v23.734h5.032v-9.107h2.193l5.146,9.107h5.586l-0.276-0.454
		C496.263,131.797,496.013,131.405,495.711,130.918z M488.178,118.506c-0.607,0.559-1.608,0.836-3.003,0.836h-1.365v-6.414h1.282
		c1.365,0,2.371,0.239,3.021,0.715c0.65,0.476,0.974,1.278,0.974,2.402C489.086,117.13,488.781,117.949,488.178,118.506z"/>
	<path fill="#FFFFFF" d="M552.646,132.087c0.386-0.239,0.725-0.523,1.016-0.853c0.293-0.33,0.552-0.678,0.78-1.046h0.211
		l0.958,2.353h3.782v-25.26h-4.951v5.812c0,0.355,0.02,0.742,0.058,1.159c0.036,0.417,0.082,0.81,0.137,1.177
		c0.055,0.433,0.114,0.86,0.178,1.282h-0.161c-0.237-0.378-0.511-0.728-0.822-1.045c-0.305-0.32-0.656-0.603-1.045-0.846
		c-0.39-0.243-0.828-0.433-1.315-0.568c-0.487-0.135-1.022-0.203-1.607-0.203c-0.952,0-1.824,0.2-2.614,0.601
		c-0.789,0.401-1.47,0.999-2.035,1.794c-0.568,0.795-1.01,1.781-1.314,2.956c-0.312,1.174-0.465,2.54-0.465,4.099
		c0,1.537,0.152,2.89,0.465,4.059c0.305,1.169,0.736,2.146,1.288,2.932c0.552,0.785,1.211,1.377,1.981,1.776
		c0.769,0.402,1.617,0.601,2.549,0.601c0.606,0,1.148-0.07,1.63-0.211C551.83,132.516,552.262,132.326,552.646,132.087z
		 M549.204,127.582c-0.49-0.893-0.738-2.232-0.738-4.019c0-1.786,0.243-3.146,0.731-4.083c0.487-0.937,1.25-1.404,2.289-1.404
		c0.639,0,1.169,0.119,1.59,0.358c0.423,0.237,0.757,0.586,1.008,1.046c0.246,0.46,0.429,1.033,0.535,1.713
		c0.107,0.682,0.163,1.463,0.163,2.338v0.536c-0.01,0.812-0.078,1.521-0.205,2.128c-0.124,0.604-0.315,1.111-0.564,1.519
		c-0.257,0.404-0.591,0.708-1,0.907c-0.413,0.202-0.91,0.3-1.494,0.3C550.471,128.921,549.696,128.477,549.204,127.582z"/>
	<path fill="#FFFFFF" d="M513.012,131.584v-3.832c-0.478,0.238-0.943,0.448-1.397,0.625c-0.454,0.179-0.914,0.328-1.38,0.448
		c-0.463,0.117-0.943,0.208-1.438,0.266c-0.491,0.06-1.014,0.089-1.565,0.089c-0.659,0-1.25-0.102-1.763-0.308
		c-0.514-0.206-0.952-0.5-1.315-0.883c-0.361-0.385-0.643-0.857-0.842-1.415c-0.2-0.557-0.314-1.182-0.334-1.875h11.073v-2.403
		c0-1.32-0.182-2.492-0.546-3.513c-0.359-1.025-0.88-1.889-1.556-2.591c-0.679-0.703-1.501-1.237-2.471-1.6
		c-0.968-0.362-2.052-0.544-3.253-0.544c-1.234,0-2.357,0.2-3.371,0.601c-1.01,0.401-1.877,0.999-2.595,1.794
		c-0.721,0.795-1.282,1.789-1.683,2.979c-0.397,1.19-0.6,2.582-0.6,4.172c0,1.57,0.217,2.937,0.656,4.1
		c0.441,1.164,1.056,2.127,1.844,2.89c0.788,0.763,1.731,1.334,2.825,1.712s2.289,0.568,3.588,0.568
		c0.669,0,1.289-0.022,1.852-0.073c0.561-0.049,1.086-0.126,1.575-0.234c0.486-0.108,0.95-0.242,1.386-0.399
		C512.141,132.004,512.579,131.812,513.012,131.584z M504.075,118.5c0.578-0.617,1.305-0.927,2.183-0.927
		c0.52,0,0.974,0.099,1.362,0.292c0.392,0.195,0.715,0.463,0.976,0.804c0.259,0.341,0.454,0.745,0.585,1.209
		c0.128,0.466,0.199,0.976,0.211,1.528h-6.316C503.163,120.083,503.494,119.115,504.075,118.5z"/>
	<path fill="#FFFFFF" d="M631.865,114.391l-2.862,10.212c-0.074,0.248-0.146,0.528-0.217,0.836s-0.133,0.621-0.186,0.934
		c-0.055,0.314-0.101,0.622-0.139,0.927c-0.04,0.302-0.068,0.578-0.091,0.828h-0.095c-0.022-0.51-0.074-1.083-0.156-1.722
		c-0.081-0.64-0.208-1.239-0.38-1.802l-2.922-10.212h-5.423l6.851,18.315l-0.309,0.908c-0.143,0.443-0.305,0.844-0.495,1.201
		c-0.189,0.357-0.416,0.665-0.683,0.918c-0.267,0.255-0.582,0.453-0.952,0.593c-0.366,0.141-0.808,0.211-1.33,0.211
		c-0.377,0-0.741-0.021-1.086-0.065c-0.347-0.044-0.635-0.091-0.86-0.146v3.93c0.29,0.065,0.644,0.125,1.053,0.185
		c0.413,0.061,0.899,0.091,1.461,0.091c1.744,0,3.195-0.466,4.352-1.398c1.158-0.931,2.075-2.354,2.746-4.27l7.174-20.473H631.865z"
		/>
	<path fill="#FFFFFF" d="M588.684,124.002c0-0.962,0.054-1.818,0.163-2.565c0.107-0.747,0.289-1.375,0.543-1.884
		c0.253-0.509,0.597-0.893,1.029-1.153c0.435-0.259,0.974-0.387,1.627-0.387c0.863,0,1.493,0.326,1.889,0.98
		c0.397,0.654,0.595,1.637,0.595,2.947v10.601h4.951v-11.835c0-1.167-0.143-2.172-0.422-3.011c-0.281-0.837-0.682-1.528-1.201-2.07
		c-0.52-0.541-1.143-0.939-1.867-1.193c-0.727-0.255-1.532-0.382-2.418-0.382c-0.523,0-1.03,0.052-1.526,0.156
		c-0.5,0.102-0.971,0.262-1.416,0.478c-0.441,0.218-0.852,0.494-1.225,0.828c-0.373,0.336-0.688,0.737-0.947,1.201h-0.276
		l-0.67-2.322h-3.779v18.151h4.951V124.002z"/>
	<path fill="#FFFFFF" d="M516.168,86.626c0,1.169,0.146,2.142,0.432,2.915c0.289,0.776,0.678,1.393,1.178,1.851
		c0.497,0.46,1.085,0.782,1.771,0.966c0.683,0.185,1.415,0.276,2.208,0.276c0.812,0,1.561-0.078,2.246-0.234
		c0.688-0.159,1.264-0.354,1.729-0.594v-3.685c-0.451,0.162-0.9,0.298-1.338,0.408c-0.438,0.107-0.898,0.16-1.388,0.16
		c-0.564,0-1.019-0.167-1.365-0.501c-0.345-0.336-0.517-0.856-0.517-1.561v-8.751h4.416v-3.717h-4.416v-3.862h-3.166l-1.432,3.83
		l-2.725,1.658v2.092h2.367V86.626z"/>
	<path fill="#FFFFFF" d="M539.511,82.358c0.374,0.432,0.851,0.825,1.429,1.177c0.577,0.352,1.263,0.705,2.056,1.062
		c0.808,0.369,1.458,0.681,1.938,0.935c0.483,0.253,0.848,0.48,1.095,0.68c0.25,0.202,0.408,0.39,0.48,0.57
		c0.071,0.178,0.107,0.38,0.107,0.607c0,0.229-0.05,0.441-0.14,0.643c-0.092,0.199-0.237,0.371-0.439,0.518
		c-0.198,0.146-0.457,0.261-0.772,0.341c-0.312,0.081-0.691,0.124-1.134,0.124c-0.402,0-0.837-0.039-1.309-0.116
		c-0.471-0.074-0.954-0.18-1.451-0.315c-0.5-0.136-1-0.296-1.504-0.479c-0.502-0.185-0.982-0.392-1.434-0.617v4.092
		c0.431,0.195,0.86,0.355,1.279,0.487c0.421,0.13,0.863,0.237,1.314,0.325c0.457,0.086,0.938,0.147,1.448,0.185
		c0.506,0.039,1.058,0.057,1.655,0.057c1.124,0,2.144-0.119,3.053-0.357c0.91-0.239,1.682-0.596,2.322-1.072
		c0.636-0.474,1.129-1.071,1.477-1.784c0.345-0.716,0.517-1.548,0.517-2.5c0-0.802-0.117-1.484-0.357-2.047
		c-0.237-0.562-0.578-1.053-1.022-1.476c-0.441-0.421-0.975-0.798-1.592-1.129c-0.614-0.329-1.309-0.663-2.077-0.998
		c-0.659-0.303-1.195-0.561-1.608-0.77c-0.408-0.211-0.727-0.407-0.957-0.586c-0.225-0.176-0.377-0.352-0.451-0.519
		c-0.078-0.166-0.117-0.359-0.117-0.575c0-0.412,0.148-0.737,0.448-0.974c0.298-0.239,0.783-0.359,1.454-0.359
		c0.744,0,1.49,0.125,2.24,0.375c0.748,0.247,1.531,0.566,2.354,0.958l1.494-3.509c-1.029-0.496-2.032-0.871-3.006-1.119
		c-0.972-0.25-2.001-0.374-3.083-0.374c-1.028,0-1.965,0.105-2.802,0.316c-0.838,0.211-1.556,0.53-2.152,0.951
		c-0.595,0.423-1.052,0.948-1.38,1.583c-0.322,0.633-0.487,1.37-0.487,2.216c0,0.768,0.093,1.43,0.276,1.987
		C538.858,81.43,539.137,81.924,539.511,82.358z"/>
	<path fill="#FFFFFF" d="M593.146,83.77c0-0.963,0.052-1.817,0.159-2.565c0.106-0.747,0.289-1.374,0.546-1.882
		c0.252-0.508,0.597-0.895,1.032-1.154c0.432-0.26,0.971-0.388,1.62-0.388c0.866,0,1.496,0.327,1.894,0.982
		c0.392,0.654,0.59,1.635,0.59,2.945V92.31h4.952V80.476c0-1.169-0.14-2.174-0.422-3.014c-0.283-0.837-0.683-1.527-1.202-2.07
		c-0.52-0.54-1.144-0.938-1.867-1.193c-0.725-0.253-1.528-0.381-2.419-0.381c-0.517,0-1.029,0.052-1.525,0.156
		c-0.497,0.102-0.968,0.261-1.409,0.479c-0.448,0.216-0.854,0.492-1.229,0.829c-0.373,0.334-0.691,0.735-0.951,1.201h-0.275
		l-0.662-2.323h-3.786V92.31h4.955V83.77z"/>
	<rect x="529.236" y="74.158" fill="#FFFFFF" width="4.952" height="18.151"/>
	<path fill="#FFFFFF" d="M529.814,71.373c0.244,0.19,0.53,0.327,0.861,0.407c0.331,0.081,0.678,0.123,1.049,0.123
		c0.367,0,0.711-0.042,1.038-0.123c0.325-0.08,0.608-0.217,0.852-0.407c0.243-0.189,0.438-0.439,0.585-0.755
		c0.146-0.313,0.22-0.698,0.22-1.15c0-0.466-0.074-0.854-0.22-1.161c-0.146-0.311-0.342-0.558-0.585-0.748s-0.526-0.322-0.852-0.398
		c-0.327-0.075-0.671-0.112-1.038-0.112c-0.371,0-0.718,0.037-1.049,0.112c-0.331,0.077-0.617,0.208-0.861,0.398
		c-0.243,0.19-0.435,0.438-0.578,0.748c-0.14,0.307-0.211,0.695-0.211,1.161c0,0.453,0.071,0.837,0.211,1.15
		C529.38,70.934,529.571,71.184,529.814,71.373z"/>
	<path fill="#FFFFFF" d="M505.339,83.071c0-0.854,0.106-1.576,0.314-2.165c0.211-0.592,0.51-1.069,0.893-1.431
		c0.388-0.362,0.846-0.625,1.38-0.786c0.537-0.164,1.124-0.246,1.763-0.246c0.107,0,0.244,0.003,0.406,0.008
		c0.163,0.005,0.326,0.018,0.493,0.034c0.169,0.015,0.329,0.034,0.48,0.057c0.151,0.021,0.271,0.042,0.358,0.065v-4.644
		c-0.064-0.022-0.159-0.042-0.286-0.057c-0.123-0.018-0.259-0.034-0.405-0.05c-0.147-0.015-0.296-0.026-0.454-0.031
		c-0.156-0.006-0.299-0.009-0.43-0.009c-0.606,0-1.146,0.073-1.617,0.221c-0.471,0.146-0.893,0.351-1.267,0.616
		c-0.373,0.264-0.71,0.586-1.013,0.964c-0.302,0.38-0.584,0.803-0.844,1.269h-0.243l-0.731-2.729h-3.75V92.31h4.952V83.071z"/>
	<path fill="#FFFFFF" d="M565.945,91.806v-3.685c-0.455,0.162-0.903,0.298-1.338,0.408c-0.44,0.107-0.903,0.16-1.39,0.16
		c-0.564,0-1.016-0.167-1.363-0.501c-0.349-0.336-0.521-0.856-0.521-1.561v-8.751h4.417v-3.717h-4.417v-3.862h-3.165l-1.429,3.83
		l-2.727,1.658v2.092h2.37v8.751c0,1.169,0.143,2.142,0.428,2.915c0.289,0.776,0.683,1.393,1.18,1.851
		c0.497,0.46,1.088,0.782,1.77,0.966c0.683,0.185,1.416,0.276,2.208,0.276c0.811,0,1.562-0.078,2.247-0.234
		C564.903,92.241,565.479,92.046,565.945,91.806z"/>
	<path fill="#FFFFFF" d="M583.21,68.307c-0.146-0.311-0.341-0.558-0.584-0.748c-0.244-0.19-0.527-0.322-0.851-0.398
		c-0.325-0.075-0.672-0.112-1.04-0.112c-0.369,0-0.717,0.037-1.049,0.112c-0.328,0.077-0.616,0.208-0.86,0.398
		c-0.243,0.19-0.435,0.438-0.574,0.748c-0.14,0.307-0.211,0.695-0.211,1.161c0,0.453,0.071,0.837,0.211,1.15
		c0.14,0.315,0.331,0.565,0.574,0.755c0.244,0.19,0.532,0.327,0.86,0.407c0.332,0.081,0.68,0.123,1.049,0.123
		c0.368,0,0.715-0.042,1.04-0.123c0.323-0.08,0.606-0.217,0.851-0.407c0.243-0.189,0.438-0.439,0.584-0.755
		c0.146-0.313,0.221-0.698,0.221-1.15C583.431,69.002,583.356,68.613,583.21,68.307z"/>
	<rect x="578.252" y="74.158" fill="#FFFFFF" width="4.951" height="18.151"/>
	<path fill="#FFFFFF" d="M483.501,68.476L475.79,92.31h5.082l1.64-5.649h8.183l1.623,5.649h5.082l-7.744-23.834H483.501z
		 M483.729,82.44l1.51-5.197c0.033-0.119,0.084-0.302,0.152-0.552c0.071-0.248,0.148-0.536,0.237-0.86
		c0.088-0.323,0.178-0.67,0.276-1.039c0.098-0.367,0.191-0.732,0.285-1.094c0.091-0.364,0.172-0.708,0.24-1.031
		c0.071-0.326,0.13-0.607,0.172-0.845c0.056,0.378,0.146,0.838,0.275,1.38c0.131,0.539,0.271,1.078,0.416,1.616
		c0.146,0.536,0.283,1.024,0.412,1.467c0.131,0.444,0.229,0.763,0.294,0.958l1.525,5.197H483.729z"/>
	<polygon fill="#FFFFFF" points="413.947,83.7 438.328,83.7 413.947,158 414.049,158.034 413.947,158.034 413.947,172.967 
		454.131,172.967 454.131,158.034 429.652,158.034 454.044,83.7 454.131,83.7 454.131,68.767 413.947,68.767 	"/>
	<polygon fill="#FFFFFF" points="91,69.002 76.067,69.002 76.067,69.106 76.067,84.04 76.067,113.437 76.067,128.37 76.067,158.034 
		76.067,172.804 76.067,172.967 116.25,172.967 116.25,158.034 91,158.034 91,128.37 110.312,128.37 110.312,113.437 91,113.437 
		91,84.04 116.25,84.04 116.25,69.106 91,69.106 	"/>
	<path fill="#FFFFFF" d="M206.593,153.5l-0.067,0.01c0,0.018-0.178,2.015-1.309,3.146c-0.82,0.822-2.262,1.238-4.285,1.238
		c-0.08,0-0.15-0.006-0.229-0.006s-0.148,0.006-0.229,0.006c-2.023,0-3.465-0.416-4.285-1.238c-1.131-1.132-1.309-3.129-1.309-3.146
		l-0.067-0.01V69.002h-14.933V153.5c0,0.854,0.164,8.219,5.696,13.758c2.568,2.57,7.238,5.637,14.897,5.637
		c0.078,0,0.15-0.008,0.229-0.009c0.078,0.001,0.15,0.009,0.229,0.009c7.66,0,12.329-3.066,14.897-5.637
		c5.533-5.539,5.696-12.904,5.696-13.758V69.002h-14.933V153.5z"/>
	<path fill="#FFFFFF" d="M345.668,68.767h-18.711c-0.854,0-8.219,0.164-13.758,5.697c-2.57,2.568-5.637,7.238-5.637,14.896
		c0,0.078,0.008,0.15,0.009,0.229h-0.008v29.416h-0.001V153.5c0,0.854,0.164,8.219,5.697,13.758
		c2.568,2.57,7.238,5.637,14.896,5.637c0.078,0,0.15-0.008,0.229-0.009v0.081h6.741h14.934v-15.078v-45.502h-4.392h-10.542h-6.313
		v14.933h6.313v30.569h-6.741c-0.078,0-0.148,0.006-0.229,0.006c-2.021,0-3.465-0.416-4.283-1.238
		c-1.131-1.132-1.311-3.129-1.311-3.146l-0.066-0.01v-2.226h0.001V89.589h0.071c0-0.078-0.006-0.148-0.006-0.229
		c0-2.021,0.416-3.465,1.238-4.283c1.132-1.131,3.129-1.311,3.146-1.311l0.01-0.066h0.376v0.176h22.727V68.944h-4.392V68.767z"/>
	<path fill="#FFFFFF" d="M380.905,69.106h-5.628c0,0-11.652,69.242-17.48,103.86h14.396l2.056-13.367h6.657h6.657l2.056,13.367
		h14.396c-5.828-34.618-17.48-103.86-17.48-103.86H380.905z M380.905,144.174h-4.004l4.004-29.157l4.004,29.157H380.905z"/>
	<path fill="#FFFFFF" d="M148.62,68.481h-5.628c0,0-11.652,69.242-17.48,103.86h14.396l2.056-13.367h6.657h6.657l2.056,13.367
		h14.396c-5.828-34.618-17.48-103.86-17.48-103.86H148.62z M148.62,143.549h-4.004l4.004-29.157l4.004,29.157H148.62z"/>
</g>
</svg>
